<?xml version="1.0" encoding="utf-8"?>
<!-- Generator: Adobe Illustrator 19.0.0, SVG Export Plug-In . SVG Version: 6.00 Build 0)  -->
<svg version="1.1" id="Layer_1" xmlns="http://www.w3.org/2000/svg" xmlns:xlink="http://www.w3.org/1999/xlink" x="0px" y="0px"
	 viewBox="0 0 2560 1440" style="enable-background:new 0 0 2560 1440;" xml:space="preserve">
<style type="text/css">
	.st0{clip-path:url(#XMLID_13_);fill:#FFFFFF;}
	.st1{clip-path:url(#XMLID_13_);}
	.st2{fill:url(#XMLID_14_);}
	.st3{opacity:0.71;fill:url(#XMLID_15_);}
	.st4{opacity:0.48;fill:url(#XMLID_16_);}
	.st5{fill:url(#XMLID_17_);}
	.st6{opacity:0.71;fill:url(#XMLID_18_);}
	.st7{opacity:0.48;fill:url(#XMLID_19_);}
</style>
<g id="XMLID_12_">
	<defs>
		<rect id="XMLID_11_" width="2560" height="1440"/>
	</defs>
	<clipPath id="XMLID_13_">
		<use xlink:href="#XMLID_11_"  style="overflow:visible;"/>
	</clipPath>
	<rect id="XMLID_5_" class="st0" width="2560" height="1440"/>
	<g id="XMLID_3_" class="st1">
		
			<linearGradient id="XMLID_14_" gradientUnits="userSpaceOnUse" x1="1731.6638" y1="2436.0566" x2="737.2275" y2="713.6425" gradientTransform="matrix(1.3445 -0.6502 0.6261 1.2946 -140.3762 695.3387)">
			<stop  offset="0" style="stop-color:#00B0F0"/>
			<stop  offset="0.1951" style="stop-color:#00A9E7"/>
			<stop  offset="0.4108" style="stop-color:#009CD9"/>
			<stop  offset="0.6365" style="stop-color:#0089C2"/>
			<stop  offset="0.8675" style="stop-color:#006FA4"/>
			<stop  offset="1" style="stop-color:#005E91"/>
		</linearGradient>
		<path id="XMLID_2_" class="st2" d="M591.1,2144.3c51.3-62.7,132-150,247-232.6c325.4-233.7,581.8-182.4,872.5-275.5
			c565.2-181,518.8-670.1,1085.3-957.5c211.7-107.4,548.4-206.6,1066.9-116.6c186.1,384.8,372.2,769.6,558.2,1154.3L1146.6,3300
			L591.1,2144.3z"/>
		
			<linearGradient id="XMLID_15_" gradientUnits="userSpaceOnUse" x1="1731.6638" y1="2342.3066" x2="737.2275" y2="619.8925" gradientTransform="matrix(1.3445 -0.6502 0.6261 1.2946 -140.3762 695.3387)">
			<stop  offset="0" style="stop-color:#00B0F0"/>
			<stop  offset="0.1951" style="stop-color:#00A9E7"/>
			<stop  offset="0.4108" style="stop-color:#009CD9"/>
			<stop  offset="0.6365" style="stop-color:#0089C2"/>
			<stop  offset="0.8675" style="stop-color:#006FA4"/>
			<stop  offset="1" style="stop-color:#005E91"/>
		</linearGradient>
		<path id="XMLID_1_" class="st3" d="M532.4,2022.9c51.3-62.7,132-150,247-232.6c325.4-233.7,581.8-182.4,872.5-275.5
			c565.2-181,518.8-670.1,1085.3-957.5c211.7-107.4,548.4-206.6,1066.9-116.6c186.1,384.8,372.2,769.6,558.2,1154.3L1087.9,3178.6
			L532.4,2022.9z"/>
		
			<linearGradient id="XMLID_16_" gradientUnits="userSpaceOnUse" x1="1731.6638" y1="2254.8066" x2="737.2275" y2="532.3925" gradientTransform="matrix(1.3445 -0.6502 0.6261 1.2946 -140.3762 695.3387)">
			<stop  offset="0" style="stop-color:#00B0F0"/>
			<stop  offset="0.1951" style="stop-color:#00A9E7"/>
			<stop  offset="0.4108" style="stop-color:#009CD9"/>
			<stop  offset="0.6365" style="stop-color:#0089C2"/>
			<stop  offset="0.8675" style="stop-color:#006FA4"/>
			<stop  offset="1" style="stop-color:#005E91"/>
		</linearGradient>
		<path id="XMLID_4_" class="st4" d="M477.7,1909.7c51.3-62.7,132-150,247-232.6c325.4-233.7,581.8-182.4,872.5-275.5
			c565.2-181,518.8-670.1,1085.3-957.5c211.7-107.4,548.4-206.6,1066.9-116.6c186.1,384.8,372.2,769.6,558.2,1154.3L1033.1,3065.3
			L477.7,1909.7z"/>
	</g>
	<g id="XMLID_7_" class="st1">
		
			<linearGradient id="XMLID_17_" gradientUnits="userSpaceOnUse" x1="1604.9546" y1="3079.6411" x2="610.5183" y2="1357.2268" gradientTransform="matrix(-1.3161 0.7059 -0.6797 -1.2673 2977.0364 1585.9747)">
			<stop  offset="0" style="stop-color:#00B0F0"/>
			<stop  offset="0.1951" style="stop-color:#00A9E7"/>
			<stop  offset="0.4108" style="stop-color:#009CD9"/>
			<stop  offset="0.6365" style="stop-color:#0089C2"/>
			<stop  offset="0.8675" style="stop-color:#006FA4"/>
			<stop  offset="1" style="stop-color:#005E91"/>
		</linearGradient>
		<path id="XMLID_10_" class="st5" d="M1914.9-736.1c-48.6,64.8-125.6,155.4-237,242.7c-315.4,247.1-573.6,206.6-860.2,311.8
			C260.5,22.8,327.4,509.5-226.6,820.4c-207.1,116.2-539.3,229.4-1061,161.1c-202-376.7-404-753.3-606-1130l3205.3-1719.1
			L1914.9-736.1z"/>
		
			<linearGradient id="XMLID_18_" gradientUnits="userSpaceOnUse" x1="1604.9546" y1="2985.8911" x2="610.5183" y2="1263.4768" gradientTransform="matrix(-1.3161 0.7059 -0.6797 -1.2673 2977.0364 1585.9747)">
			<stop  offset="0" style="stop-color:#00B0F0"/>
			<stop  offset="0.1951" style="stop-color:#00A9E7"/>
			<stop  offset="0.4108" style="stop-color:#009CD9"/>
			<stop  offset="0.6365" style="stop-color:#0089C2"/>
			<stop  offset="0.8675" style="stop-color:#006FA4"/>
			<stop  offset="1" style="stop-color:#005E91"/>
		</linearGradient>
		<path id="XMLID_9_" class="st6" d="M1978.6-617.3c-48.6,64.8-125.6,155.4-237,242.7C1426.2-127.5,1168-168,881.4-62.9
			C324.2,141.6,391.1,628.3-162.9,939.2c-207.1,116.2-539.3,229.4-1061,161.1c-202-376.7-404-753.3-606-1130l3205.3-1719.1
			L1978.6-617.3z"/>
		
			<linearGradient id="XMLID_19_" gradientUnits="userSpaceOnUse" x1="1604.9546" y1="2898.3911" x2="610.5183" y2="1175.9768" gradientTransform="matrix(-1.3161 0.7059 -0.6797 -1.2673 2977.0364 1585.9747)">
			<stop  offset="0" style="stop-color:#00B0F0"/>
			<stop  offset="0.1951" style="stop-color:#00A9E7"/>
			<stop  offset="0.4108" style="stop-color:#009CD9"/>
			<stop  offset="0.6365" style="stop-color:#0089C2"/>
			<stop  offset="0.8675" style="stop-color:#006FA4"/>
			<stop  offset="1" style="stop-color:#005E91"/>
		</linearGradient>
		<path id="XMLID_8_" class="st7" d="M2038.1-506.4c-48.6,64.8-125.6,155.4-237,242.7C1485.7-16.6,1227.4-57.1,940.9,48
			c-557.1,204.5-490.3,691.2-1044.3,1002c-207.1,116.2-539.3,229.4-1061,161.1c-202-376.7-404-753.3-606-1130l3205.3-1719.1
			L2038.1-506.4z"/>
	</g>
</g>
</svg>
